<?xml version="1.0" encoding="utf-8"?>
<!-- Generator: Adobe Illustrator 21.0.2, SVG Export Plug-In . SVG Version: 6.00 Build 0)  -->
<svg version="1.1" id="bag" xmlns="http://www.w3.org/2000/svg" xmlns:xlink="http://www.w3.org/1999/xlink" x="0px" y="0px"
	 viewBox="0 0 96 96" style="enable-background:new 0 0 96 96;" xml:space="preserve">
<style type="text/css">
	.st0{fill:#FFFFFF;}
</style>
<path class="st0" d="M68,24v-4C68,9,59,0,48,0S28,9,28,20v4H12v60c0,6.6,5.4,12,12,12h48c6.6,0,12-5.4,12-12V24H68z M36,20
	c0-6.6,5.4-12,12-12s12,5.4,12,12v4H36V20z M76,84c0,2.2-1.8,4-4,4H24c-2.2,0-4-1.8-4-4V32h56V84z"/>
</svg>
