<svg width="89" height="89" viewBox="0 0 89 89" fill="none" xmlns="http://www.w3.org/2000/svg">
<path fill-rule="evenodd" clip-rule="evenodd" d="M89 44.5C89 69.0773 69.0774 89 44.5 89C37.38 89 30.6516 87.3268 24.6886 84.3542C23.1139 83.5385 21.295 83.3279 19.5756 83.7623L9.6699 86.4145C8.68944 86.6762 7.65741 86.6753 6.6774 86.412C5.69739 86.1487 4.80388 85.6322 4.08655 84.9144C3.36923 84.1967 2.85333 83.3028 2.59064 82.3227C2.32796 81.3425 2.32772 80.3104 2.58995 79.3301L5.2377 69.4244C5.66961 67.7059 5.45749 65.8887 4.6414 64.3158C1.57817 58.16 -0.0108371 51.3759 5.56266e-05 44.5C5.56266e-05 19.9227 19.9227 0 44.5 0C69.0774 0 89 19.9227 89 44.5ZM24.475 40.5306C24.475 46.6226 30.3446 53.0128 35.7291 57.5919C39.3914 60.7069 41.2248 62.2688 44.5 62.2688C47.7752 62.2688 49.6086 60.7113 53.271 57.5919C58.6555 53.0084 64.525 46.6226 64.525 40.5306C64.525 28.6179 53.5113 24.1724 44.5 33.375C35.4888 24.1724 24.475 28.6179 24.475 40.5306Z" fill="white"/>
</svg>
