<svg width="157" height="157" viewBox="0 0 157 157" fill="none" xmlns="http://www.w3.org/2000/svg">
<path fill-rule="evenodd" clip-rule="evenodd" d="M3.76835 35.357C-3.63426 48.1762 0.722524 64.4493 9.45179 97.0035C18.1654 129.558 22.53 145.831 35.357 153.234C48.184 160.636 64.4493 156.272 97.0035 147.55C129.558 138.829 145.831 134.472 153.234 121.645C160.636 108.818 156.272 92.5526 147.55 59.9983C138.829 27.4441 134.472 11.171 121.645 3.76835C108.818 -3.63426 92.5526 0.722524 59.9983 9.45179C27.4441 18.1654 11.171 22.53 3.76835 35.357ZM48.553 107.947C48.7411 107.197 49.075 106.491 49.5359 105.87C49.9967 105.249 50.5753 104.725 51.2386 104.328C51.902 103.931 52.6371 103.668 53.402 103.555C54.1669 103.441 54.9465 103.48 55.6965 103.668C64.5671 105.89 74.7565 105.913 85.1028 103.142C95.4492 100.371 104.257 95.253 110.835 88.8944C111.384 88.3282 112.042 87.878 112.768 87.5707C113.494 87.2634 114.275 87.1052 115.064 87.1054C115.853 87.1057 116.633 87.2644 117.36 87.5722C118.086 87.88 118.743 88.3306 119.291 88.8971C119.84 89.4637 120.269 90.1348 120.554 90.8705C120.838 91.6062 120.972 92.3915 120.947 93.1799C120.922 93.9682 120.738 94.7435 120.408 95.4597C120.078 96.1759 119.607 96.8183 119.023 97.349C116.234 100.043 113.213 102.486 109.995 104.65L111.244 107.162C111.925 108.55 112.327 110.058 112.426 111.602C112.525 113.145 112.319 114.693 111.82 116.157C111.32 117.62 110.537 118.971 109.516 120.133C108.495 121.294 107.254 122.243 105.866 122.924C104.478 123.606 102.969 124.008 101.426 124.107C99.8826 124.206 98.3349 124 96.8711 123.5C95.4074 123.001 94.0564 122.218 92.8951 121.197C91.7339 120.175 90.7853 118.935 90.1033 117.547L88.5647 114.407L88.1487 114.517C75.9418 117.791 63.7193 117.814 52.8312 115.09C52.0812 114.902 51.3757 114.568 50.7548 114.107C50.1338 113.646 49.6098 113.068 49.2125 112.404C48.8152 111.741 48.5525 111.006 48.4393 110.241C48.3262 109.476 48.3648 108.697 48.553 107.947ZM105.78 59.0014C107.468 65.2814 105.435 71.2867 101.25 72.4014C97.0585 73.524 92.3014 69.3399 90.6214 63.0599C88.9415 56.7798 90.9669 50.7824 95.1509 49.6598C99.3429 48.5373 104.1 52.7213 105.78 59.0014ZM55.7515 84.5926C59.9434 83.47 61.9687 77.4726 60.2888 71.1925C58.6089 64.9125 53.8518 60.7284 49.6598 61.851C45.4679 62.9735 43.4426 68.971 45.1225 75.251C46.8024 81.5311 51.5595 85.7152 55.7515 84.5926Z" fill="white"/>
</svg>
