<svg width="118" height="118" viewBox="0 0 118 118" fill="none" xmlns="http://www.w3.org/2000/svg">
<path fill-rule="evenodd" clip-rule="evenodd" d="M59 8.23256C45.5356 8.23256 32.6227 13.5813 23.102 23.102C13.5813 32.6227 8.23256 45.5356 8.23256 59C8.23256 72.4644 13.5813 85.3773 23.102 94.898C32.6227 104.419 45.5356 109.767 59 109.767C72.4644 109.767 85.3773 104.419 94.898 94.898C104.419 85.3773 109.767 72.4644 109.767 59C109.767 45.5356 104.419 32.6227 94.898 23.102C85.3773 13.5813 72.4644 8.23256 59 8.23256ZM0 59C0 26.4155 26.4155 0 59 0C91.5845 0 118 26.4155 118 59C118 91.5845 91.5845 118 59 118C26.4155 118 0 91.5845 0 59ZM59 32.9302C60.0917 32.9302 61.1387 33.3639 61.9106 34.1359C62.6826 34.9078 63.1163 35.9548 63.1163 37.0465V57.2986L75.6298 69.8121C76.0342 70.1889 76.3586 70.6434 76.5835 71.1483C76.8085 71.6532 76.9295 72.1983 76.9393 72.751C76.949 73.3037 76.8473 73.8527 76.6403 74.3652C76.4333 74.8778 76.1251 75.3434 75.7343 75.7343C75.3434 76.1251 74.8778 76.4333 74.3652 76.6403C73.8527 76.8473 73.3037 76.949 72.751 76.9393C72.1983 76.9295 71.6532 76.8085 71.1483 76.5835C70.6434 76.3586 70.1889 76.0342 69.8121 75.6298L56.0912 61.9088C55.319 61.1376 54.8847 60.0913 54.8837 59V37.0465C54.8837 35.9548 55.3174 34.9078 56.0894 34.1359C56.8613 33.3639 57.9083 32.9302 59 32.9302Z" fill="#fdead8"/>
</svg>
