<?xml version="1.0" encoding="utf-8"?>
<!-- Generator: Adobe Illustrator 25.3.0, SVG Export Plug-In . SVG Version: 6.00 Build 0)  -->
<svg version="1.1" id="Layer_1" xmlns="http://www.w3.org/2000/svg" xmlns:xlink="http://www.w3.org/1999/xlink" x="0px" y="0px"
	 viewBox="0 0 71.61 103.06" style="enable-background:new 0 0 71.61 103.06;" xml:space="preserve">
<style type="text/css">
	.st0{fill:#0B71B6;}
	.st1{fill:#FFFFFF;}
</style>
<polygon class="st0" points="3.58,24.48 68.03,24.48 62.22,89.98 35.8,97.91 8.69,89.98 "/>
<polygon class="st1" points="14.97,37.6 56.7,37.6 52.83,80.21 35.8,85.05 18.05,80.21 17.7,66.74 26.06,66.74 26.15,73.62 
	35.39,75.9 45.52,73.62 46.32,62.6 16.73,62.6 16.38,54.15 47.2,54.41 47.92,46.4 14.97,46.4 "/>
<polygon class="st0" points="40.43,8.76 40.43,5.15 34.67,5.15 32.27,5.15 30.55,5.15 30.55,13.32 32.27,13.32 34.67,13.32 
	36.32,13.32 36.32,14.35 30.55,14.35 30.55,17.92 36.32,17.92 40.43,17.92 40.43,14.35 40.43,13.32 40.43,9.75 36.32,9.75 
	34.67,9.75 34.67,8.76 "/>
<polygon class="st0" points="52.8,8.76 52.8,5.15 47.04,5.15 44.64,5.15 42.92,5.15 42.92,13.32 44.64,13.32 47.04,13.32 
	48.69,13.32 48.69,14.35 42.92,14.35 42.92,17.92 48.69,17.92 52.8,17.92 52.8,14.35 52.8,13.32 52.8,9.75 48.69,9.75 47.04,9.75 
	47.04,8.76 "/>
<polygon class="st0" points="28,9.62 28,5.15 22.45,5.15 18.19,5.15 17.98,5.15 17.98,17.79 18.19,17.79 22.45,17.79 28,17.79 
	28,13.32 22.45,13.32 22.45,9.62 "/>
</svg>
