<?xml version="1.0" encoding="utf-8"?>
<!-- Generator: Adobe Illustrator 25.3.0, SVG Export Plug-In . SVG Version: 6.00 Build 0)  -->
<svg version="1.1" id="Layer_1" xmlns="http://www.w3.org/2000/svg" xmlns:xlink="http://www.w3.org/1999/xlink" x="0px" y="0px"
	 viewBox="0 0 57.65 86.48" style="enable-background:new 0 0 57.65 86.48;" xml:space="preserve">
<style type="text/css">
	.st0{fill:#00B6FF;}
	.st1{fill:#FF3737;}
	.st2{fill:#874FFF;}
	.st3{fill:#24CB71;}
	.st4{fill:#FF7237;}
</style>
<circle class="st0" cx="39.73" cy="43.21" r="10.88"/>
<path class="st1" d="M17.95,10.61c-6.01,0-10.88,4.87-10.88,10.88c0,6.01,4.87,10.88,10.88,10.88h10.88V10.61H17.95z"/>
<path class="st2" d="M17.95,32.36c-6.01,0-10.88,4.87-10.88,10.88s4.87,10.88,10.88,10.88h10.88V32.36H17.95z"/>
<path class="st3" d="M17.95,54.12c-6.01,0-10.88,4.87-10.88,10.88c0,6.01,4.87,10.88,10.88,10.88c6.01,0,10.88-4.87,10.88-10.88
	V54.12H17.95z"/>
<path class="st4" d="M39.71,10.61H28.83v21.75h10.88c6.01,0,10.88-4.87,10.88-10.88C50.58,15.48,45.71,10.61,39.71,10.61z"/>
</svg>
