<?xml version="1.0" encoding="utf-8"?>
<!-- Generator: Adobe Illustrator 25.3.0, SVG Export Plug-In . SVG Version: 6.00 Build 0)  -->
<svg version="1.1" id="Layer_1" xmlns="http://www.w3.org/2000/svg" xmlns:xlink="http://www.w3.org/1999/xlink" x="0px" y="0px"
	 viewBox="0 0 71.61 101.79" style="enable-background:new 0 0 71.61 101.79;" xml:space="preserve">
<style type="text/css">
	.st0{fill:#E65126;}
	.st1{fill:#FFFFFF;}
</style>
<polygon class="st0" points="3.58,23.27 68.03,23.27 62.22,88.77 35.8,96.7 8.69,88.77 "/>
<polygon class="st1" points="15.55,36.39 55.88,36.39 55.88,44.93 24.27,44.93 24.89,53.12 54.56,53.12 52.62,77.95 35.8,83.14 
	18.55,77.68 17.67,65.18 26.3,65.18 26.56,71.25 35.72,74.34 45.14,71.25 45.84,61.04 17.32,61.66 "/>
<polygon class="st0" points="46.22,5.09 43.46,9.88 40.69,5.09 36.68,5.09 36.68,17.46 40.69,17.46 40.69,11.36 43.45,15.67 
	43.45,15.7 43.46,15.69 43.46,15.7 43.46,15.67 46.22,11.36 46.22,17.46 50.23,17.46 50.23,5.09 "/>
<polygon class="st0" points="56.52,13.45 56.52,5.09 52.52,5.09 52.52,17.46 53.97,17.46 56.52,17.46 61.95,17.46 61.95,13.45 "/>
<polygon class="st0" points="34.93,5.09 23.21,5.09 23.21,9.1 26.81,9.1 26.81,17.46 31.33,17.46 31.33,9.1 34.93,9.1 "/>
<polygon class="st0" points="17.76,5.09 17.76,9.49 13.35,9.49 13.35,5.09 9.35,5.09 9.35,17.46 13.35,17.46 13.35,13.01 
	17.76,13.01 17.76,17.46 21.76,17.46 21.76,5.09 "/>
</svg>
