<svg width="71" height="75" viewBox="0 0 71 75" fill="none" xmlns="http://www.w3.org/2000/svg">
<path fill-rule="evenodd" clip-rule="evenodd" d="M42.1489 0.57C40.7663 -1.67638e-07 39.0099 0 35.5011 0C31.9922 0 30.2396 -1.67638e-07 28.8532 0.57C27.941 0.944045 27.1115 1.49543 26.4125 2.19243C25.7135 2.88942 25.1587 3.71826 24.7801 4.63125C24.4288 5.4675 24.2943 6.44625 24.2383 7.8675C24.2116 8.89688 23.9246 9.90256 23.4043 10.7901C22.884 11.6776 22.1474 12.4178 21.2637 12.9413C20.3622 13.4441 19.3488 13.7105 18.3173 13.7158C17.2859 13.721 16.2698 13.4649 15.3633 12.9713C14.1002 12.3038 13.1847 11.9363 12.2804 11.8163C10.3021 11.5572 8.30167 12.0907 6.71253 13.3012C5.52421 14.2087 4.64606 15.7238 2.89349 18.75C1.13718 21.7762 0.262757 23.2875 0.0647051 24.7687C-0.196873 26.7412 0.341231 28.7362 1.55944 30.315C2.11249 31.035 2.89349 31.6387 4.10048 32.3962C5.88295 33.51 7.02642 35.4075 7.02642 37.5C7.02642 39.5925 5.88295 41.49 4.10422 42.6C2.89349 43.3612 2.11249 43.965 1.5557 44.685C0.956187 45.4658 0.515925 46.3575 0.260088 47.3092C0.00425068 48.2609 -0.0621427 49.2538 0.0647051 50.2313C0.262757 51.7088 1.13718 53.2238 2.89349 56.25C4.6498 59.2762 5.52421 60.7875 6.71253 61.6987C8.29694 62.91 10.2999 63.4425 12.2804 63.1838C13.1847 63.0638 14.1002 62.6963 15.3633 62.0288C16.2703 61.5344 17.2871 61.2779 18.3192 61.2832C19.3514 61.2884 20.3655 61.5552 21.2675 62.0587C23.0836 63.1087 24.1598 65.04 24.2383 67.1325C24.2943 68.5575 24.4288 69.5325 24.7801 70.3687C25.5424 72.2062 27.0072 73.6687 28.8532 74.43C30.2359 75 31.9922 75 35.5011 75C39.0099 75 40.7663 75 42.1489 74.43C43.0611 74.056 43.8906 73.5046 44.5896 72.8076C45.2886 72.1106 45.8434 71.2817 46.222 70.3687C46.5733 69.5325 46.7078 68.5575 46.7639 67.1325C46.8386 65.04 47.9185 63.105 49.7384 62.0587C50.6399 61.5559 51.6533 61.2895 52.6848 61.2842C53.7162 61.279 54.7323 61.5351 55.6388 62.0288C56.9019 62.6963 57.8174 63.0638 58.7217 63.1838C60.7022 63.4463 62.7052 62.91 64.2896 61.6987C65.4779 60.7912 66.3561 59.2762 68.1086 56.25C69.8649 53.2238 70.7394 51.7125 70.9374 50.2313C71.0637 49.2536 70.9967 48.2605 70.7403 47.3088C70.4838 46.3571 70.0429 45.4655 69.4427 44.685C68.8896 43.965 68.1086 43.3613 66.9016 42.6038C65.1192 41.49 63.9757 39.5925 63.9757 37.5C63.9757 35.4075 65.1192 33.51 66.8979 32.4C68.1086 31.6388 68.8896 31.035 69.4464 30.315C70.0459 29.5342 70.4862 28.6425 70.742 27.6908C70.9979 26.7391 71.0643 25.7462 70.9374 24.7687C70.7394 23.2912 69.8649 21.7762 68.1086 18.75C66.3523 15.7238 65.4779 14.2125 64.2896 13.3012C62.7004 12.0907 60.7001 11.5572 58.7217 11.8163C57.8174 11.9363 56.9019 12.3038 55.6388 12.9713C54.7318 13.4656 53.7151 13.7221 52.6829 13.7168C51.6507 13.7116 50.6366 13.4448 49.7346 12.9413C48.8517 12.4174 48.1158 11.6769 47.5962 10.7895C47.0766 9.90196 46.7901 8.89652 46.7639 7.8675C46.7078 6.4425 46.5733 5.4675 46.222 4.63125C45.8434 3.71826 45.2886 2.88942 44.5896 2.19243C43.8906 1.49543 43.0611 0.944045 42.1489 0.57ZM35.5011 48.75C41.7416 48.75 46.7975 43.7137 46.7975 37.5C46.7975 31.2863 41.7378 26.25 35.5011 26.25C29.2643 26.25 24.2046 31.2863 24.2046 37.5C24.2046 43.7137 29.2643 48.75 35.5011 48.75Z" fill="#77C2EE"/>
</svg>
