<svg width="75" height="75" viewBox="0 0 75 75" fill="none" xmlns="http://www.w3.org/2000/svg">
<path fill-rule="evenodd" clip-rule="evenodd" d="M44.5235 0.57C43.0629 -1.67638e-07 41.2077 0 37.5011 0C33.7946 0 31.9432 -1.67638e-07 30.4788 0.57C29.5152 0.944045 28.639 1.49543 27.9005 2.19243C27.1621 2.88942 26.5761 3.71826 26.1762 4.63125C25.8051 5.4675 25.663 6.44625 25.6038 7.8675C25.5756 8.89688 25.2725 9.90256 24.7229 10.7901C24.1732 11.6776 23.3951 12.4178 22.4617 12.9413C21.5094 13.4441 20.4389 13.7105 19.3493 13.7158C18.2598 13.721 17.1865 13.4649 16.2288 12.9713C14.8946 12.3038 13.9275 11.9363 12.9723 11.8163C10.8825 11.5572 8.76937 12.0907 7.0907 13.3012C5.83544 14.2087 4.90781 15.7238 3.0565 18.75C1.20124 21.7762 0.27756 23.2875 0.0683505 24.7687C-0.207964 26.7412 0.360455 28.7362 1.64729 30.315C2.2315 31.035 3.0565 31.6387 4.33149 32.3962C6.21438 33.51 7.42227 35.4075 7.42227 37.5C7.42227 39.5925 6.21438 41.49 4.33544 42.6C3.0565 43.3612 2.2315 43.965 1.64334 44.685C1.01006 45.4658 0.544991 46.3575 0.274741 47.3092C0.00449016 48.2609 -0.0656437 49.2538 0.0683505 50.2313C0.27756 51.7088 1.20124 53.2238 3.0565 56.25C4.91176 59.2762 5.83544 60.7875 7.0907 61.6987C8.76437 62.91 10.8802 63.4425 12.9723 63.1838C13.9275 63.0638 14.8946 62.6963 16.2288 62.0288C17.1869 61.5344 18.261 61.2779 19.3513 61.2832C20.4416 61.2884 21.5128 61.5552 22.4656 62.0587C24.3841 63.1087 25.5209 65.04 25.6038 67.1325C25.663 68.5575 25.8051 69.5325 26.1762 70.3687C26.9814 72.2062 28.5288 73.6687 30.4788 74.43C31.9393 75 33.7946 75 37.5011 75C41.2077 75 43.0629 75 44.5235 74.43C45.4871 74.056 46.3633 73.5046 47.1017 72.8076C47.8401 72.1106 48.4262 71.2817 48.8261 70.3687C49.1971 69.5325 49.3392 68.5575 49.3984 67.1325C49.4774 65.04 50.6182 63.105 52.5405 62.0587C53.4929 61.5559 54.5634 61.2895 55.6529 61.2842C56.7425 61.279 57.8158 61.5351 58.7734 62.0288C60.1076 62.6963 61.0747 63.0638 62.03 63.1838C64.1221 63.4463 66.2379 62.91 67.9115 61.6987C69.1668 60.7912 70.0944 59.2762 71.9457 56.25C73.801 53.2238 74.7247 51.7125 74.9339 50.2313C75.0673 49.2536 74.9966 48.2605 74.7256 47.3088C74.4547 46.3571 73.9889 45.4655 73.3549 44.685C72.7707 43.965 71.9457 43.3613 70.6707 42.6038C68.7879 41.49 67.58 39.5925 67.58 37.5C67.58 35.4075 68.7879 33.51 70.6668 32.4C71.9457 31.6388 72.7707 31.035 73.3589 30.315C73.9922 29.5342 74.4572 28.6425 74.7275 27.6908C74.9977 26.7391 75.0679 25.7462 74.9339 24.7687C74.7247 23.2912 73.801 21.7762 71.9457 18.75C70.0905 15.7238 69.1668 14.2125 67.9115 13.3012C66.2329 12.0907 64.1198 11.5572 62.03 11.8163C61.0747 11.9363 60.1076 12.3038 58.7734 12.9713C57.8153 13.4656 56.7413 13.7221 55.651 13.7168C54.5606 13.7116 53.4894 13.4448 52.5366 12.9413C51.6039 12.4174 50.8266 11.6769 50.2777 10.7895C49.7288 9.90196 49.4262 8.89652 49.3984 7.8675C49.3392 6.4425 49.1971 5.4675 48.8261 4.63125C48.4262 3.71826 47.8401 2.88942 47.1017 2.19243C46.3633 1.49543 45.4871 0.944045 44.5235 0.57ZM37.5011 48.75C44.0932 48.75 49.434 43.7137 49.434 37.5C49.434 31.2863 44.0893 26.25 37.5011 26.25C30.913 26.25 25.5683 31.2863 25.5683 37.5C25.5683 43.7137 30.913 48.75 37.5011 48.75Z" fill="#77C2EE"/>
</svg>
