<?xml version="1.0" encoding="utf-8"?>
<!-- Generator: Adobe Illustrator 22.0.1, SVG Export Plug-In . SVG Version: 6.00 Build 0)  -->
<svg version="1.1" id="Layer_1" xmlns="http://www.w3.org/2000/svg" xmlns:xlink="http://www.w3.org/1999/xlink" x="0px" y="0px"
	 viewBox="0 0 240 234" style="enable-background:new 0 0 240 234;" xml:space="preserve">
<style type="text/css">
	.st0{fill:#1372B7;}
	.st1{fill:#FFFFFF;}
</style>
<title>Asset 104</title>
<g id="Layer_2_1_">
	<g id="Surfaces">
		<g id="Drawing_Surface">
			<g id="Outline_no_shadow">
				<path class="st0" d="M42.5,0h155C221,0,240,19,240,42.5v149c0,23.5-19,42.5-42.5,42.5h-155C19,234,0,215,0,191.5v-149
					C0,19,19,0,42.5,0z"/>
			</g>
		</g>
	</g>
	<g id="Outlined_Mnemonics_Logos">
		<g>
			<path class="st1" d="M40.8,170.5c-0.7,3.2-1.7,5.8-2.9,7.9c-1.3,2.1-2.9,3.6-4.9,4.7c-2,1-4.4,1.6-7.3,1.6
				c-0.9,0-1.9-0.1-2.8-0.4l0.8-3.2c0.6,0.2,1.2,0.2,2,0.2c0.9,0,1.6-0.1,2.2-0.4c0.6-0.2,1.1-0.7,1.5-1.3s0.9-1.5,1.3-2.7
				c0.4-1.2,0.8-2.8,1.3-4.9l4.8-21.4c0.3-1.1,0.4-2,0.5-2.7c0.1-0.7,0.1-1.3,0.1-1.8c0-0.8-0.2-1.3-0.5-1.6
				c-0.4-0.3-1.1-0.5-2.3-0.7l0.4-2l8.7-0.3h3.4L40.8,170.5z M49.2,130.2l-1.5,7.3H40l1.6-7.3H49.2z"/>
			<path class="st1" d="M70.1,171.2l0.7,1.8c0.4,1.2,0.8,2.1,1.2,2.7c0.4,0.6,0.8,1.1,1.3,1.4c0.5,0.3,1.1,0.5,1.9,0.5
				s1.5-0.2,2.2-0.6c0.7-0.4,1.6-1.1,2.5-2l2.3,2.3c-2,2-3.8,3.4-5.4,4.3c-1.6,0.9-3.3,1.4-5.2,1.4c-2.1,0-3.9-0.6-5.4-1.8
				s-2.6-3.1-3.4-5.7l-1.2-3.5c-3.6-0.4-6.4-1.8-8.3-4.1c-1.9-2.3-2.9-5.6-2.9-9.8c0-1.6,0.2-3.4,0.5-5.4c0.3-2,0.9-4.1,1.6-6.4
				c0.8-2.2,1.8-4.4,3.1-6.4s2.9-3.7,4.7-5.1c1.8-1.4,3.8-2.5,6-3.2c2.2-0.7,4.5-1.1,6.9-1.1c4.5,0,7.9,1.2,10.3,3.5
				c2.3,2.4,3.5,5.8,3.5,10.3c0,1.9-0.2,4.1-0.7,6.5c-0.4,2.4-1.1,4.8-2,7c-0.9,2.3-2.1,4.3-3.5,6.1c-1.4,1.8-3,3.4-4.8,4.6
				C74.1,169.8,72.2,170.7,70.1,171.2z M59.2,160.7c0,2.7,0.4,4.7,1.2,5.9c0.8,1.2,2.1,1.8,3.9,1.8c0.9,0,1.9-0.2,2.7-0.7
				c1.1-0.5,2.1-1.4,3.1-2.5c1.2-1.4,2.4-3.1,3.4-5.2c1-2.1,1.9-4.4,2.6-6.9c0.6-2,1-4.4,1.5-7.1c0.2-1.5,0.4-3,0.4-4.5
				c0-2.7-0.4-4.6-1.2-5.8c-0.8-1.2-2.1-1.8-3.9-1.8c-1.7,0-3.4,0.8-5,2.3s-3.1,3.7-4.4,6.5c-1.3,2.8-2.3,5.9-3,9.4
				C59.6,155.6,59.2,158.5,59.2,160.7z"/>
			<path class="st1" d="M90.5,142h12.3l-3.7,16.1c-0.5,2.3-0.9,3.9-1,4.7c-0.1,0.9-0.2,1.6-0.2,2c0,0.9,0.2,1.6,0.5,2
				c0.4,0.4,0.9,0.6,1.6,0.6c0.4,0,0.8-0.1,1.3-0.3c0.5-0.2,0.9-0.5,1.4-0.8c0.5-0.4,1-0.9,1.7-1.5c0.7-0.7,1.2-1.4,1.7-2.1
				c0.5-0.7,0.9-1.5,1.2-2.4c0.3-0.9,0.6-1.9,0.9-3.2l3.3-15.2h8.5l-4.7,21c-0.1,0.5-0.2,1.2-0.4,2c-0.2,0.9-0.3,1.6-0.3,2.2
				c0,0.8,0.2,1.4,0.7,1.7c0.5,0.3,1.2,0.5,2.2,0.6l-0.4,2H106l1.6-6.1l-0.4-0.1c-1.8,2.3-3.6,4-5.3,5.1s-3.7,1.6-5.8,1.6
				c-2,0-3.6-0.6-4.7-1.7s-1.8-2.7-1.8-4.7c0-1.3,0.2-2.8,0.6-4.6l2.4-11c0.2-0.9,0.3-1.6,0.4-2.1c0.1-0.5,0.1-0.9,0.1-1.3
				c0-0.9-0.2-1.5-0.7-1.8c-0.4-0.4-1.2-0.6-2.3-0.7L90.5,142z"/>
			<path class="st1" d="M147.1,165.3c-2,2.3-4.2,3.9-6.5,5s-4.8,1.6-7.5,1.6c-2.3,0-4.3-0.4-5.9-1.2c-1.6-0.8-2.8-2-3.7-3.6
				c-0.8-1.6-1.2-3.5-1.2-5.7c0-1,0.1-2.3,0.4-3.9c0.4-2.2,1-4.1,1.7-5.8c1-2.1,2.2-3.9,3.8-5.4c1.6-1.5,3.4-2.7,5.5-3.5
				s4.4-1.2,6.9-1.2c3,0,5.2,0.5,6.8,1.6s2.3,2.7,2.3,4.9c0,1.5-0.3,2.8-0.9,4s-1.6,2.2-3,3.1c-1.4,0.9-3.4,1.7-6,2.3
				s-5.7,0.9-9.3,1c-0.3,1.2-0.4,2.4-0.4,3.6c0,0.7,0.1,1.4,0.2,2.1c0.1,0.7,0.4,1.3,0.7,1.8c0.4,0.5,0.8,0.9,1.4,1.2
				s1.4,0.5,2.3,0.5c1.7,0,3.3-0.4,4.7-1.1c1.4-0.7,3.1-2,5-3.8L147.1,165.3z M131.4,155.3c3.6-0.1,6.4-0.8,8.4-2.1s2.9-3.1,2.9-5.5
				c0-1-0.2-1.8-0.7-2.3c-0.5-0.5-1.1-0.8-1.9-0.8c-1.8,0-3.5,0.9-5,2.7C133.6,149.2,132.4,151.8,131.4,155.3z"/>
			<path class="st1" d="M176.9,150.1h-5.3c0-1.3-0.1-2.2-0.4-2.8c-0.3-0.5-0.8-0.8-1.5-0.8c-0.3,0-0.6,0.1-1,0.2
				c-0.3,0.1-0.7,0.4-1.2,0.7c-0.4,0.3-1,0.9-1.6,1.6c-0.6,0.7-1.1,1.4-1.6,2.1s-0.8,1.4-1,2.2c-0.3,0.8-0.5,1.7-0.8,2.9l-3.3,15.2
				h-8.5l4.7-21c0.4-2,0.7-3.4,0.7-4.2c0-0.8-0.2-1.4-0.7-1.7c-0.5-0.3-1.2-0.5-2.2-0.6l0.4-2l8.2-0.3h3.4l-2.2,6.9l0.4,0.1
				c1.7-2.4,3.4-4.1,5.3-5.3c1.8-1.2,3.8-1.8,6-1.8c1.3,0,2.7,0.2,4.2,0.6L176.9,150.1z"/>
			<path class="st1" d="M184.3,171.5l-2.7-22c-0.2-1.4-0.4-2.5-0.6-3.3c-0.2-0.7-0.5-1.3-0.9-1.6c-0.4-0.3-1-0.5-1.8-0.6l0.4-2h10.4
				l2,22.2c3-4.3,5.2-7.8,6.6-10.7c1.4-2.9,2.1-5.3,2.1-7.2c0-0.8-0.2-1.3-0.5-1.7c-0.4-0.4-1-0.6-1.9-0.6l0.4-2h8.4l1,2
				c-0.8,2.2-2.1,4.9-3.8,7.9c-1.7,3-3.8,6.4-6.4,10.2s-5.2,7.4-8.1,11.1c-2.4,3.1-4.4,5.4-6,7c-1.2,1.2-2.4,2.1-3.4,2.7
				c-0.9,0.5-1.8,0.9-2.8,1.2c-1,0.3-2.1,0.4-3.4,0.4c-0.6,0-1.3-0.1-2.1-0.2c-0.8-0.1-1.5-0.3-2.1-0.5l1.5-6.7h3.1
				c0,0.8,0.2,1.4,0.5,1.8c0.3,0.4,0.8,0.6,1.4,0.6c0.8,0,1.6-0.1,2.2-0.4c0.7-0.3,1.3-0.7,2-1.3c0.7-0.6,1.5-1.4,2.5-2.4
				c0.9-1.1,2-2.4,3.3-3.9H184.3z"/>
		</g>
		<g>
			<path class="st1" d="M94.9,37.6c0,0-38.1,41.8,10.5,76.6c37,26.5,69.3-0.4,75.1-14.4c0,0-31.1,27.2-64.6,1.6
				C103.2,91.7,79,70.3,94.9,37.6z"/>
			<path class="st1" d="M120.3,29c0,0-27.3,30,7.5,54.9c26.5,19,49.6-0.3,53.8-10.3c0,0-22.3,19.5-46.3,1.1
				C126.3,67.8,108.9,52.4,120.3,29z"/>
			<path class="st1" d="M140.6,23.6c0,0-17.7,19.4,4.9,35.5c17.1,12.3,32.1-0.2,34.8-6.7c0,0-14.4,12.6-29.9,0.7
				C144.5,48.6,133.2,38.7,140.6,23.6z"/>
		</g>
	</g>
</g>
</svg>
