<?xml version="1.0" encoding="utf-8"?>
<!-- Generator: Adobe Illustrator 25.3.0, SVG Export Plug-In . SVG Version: 6.00 Build 0)  -->
<svg version="1.1" id="Layer_1" xmlns="http://www.w3.org/2000/svg" xmlns:xlink="http://www.w3.org/1999/xlink" x="0px" y="0px"
	 viewBox="0 0 71.61 102.46" style="enable-background:new 0 0 71.61 102.46;" xml:space="preserve">
<style type="text/css">
	.st0{fill:#E7A121;}
	.st1{fill:#FFFFFF;}
</style>
<polygon class="st0" points="3.58,23.91 68.03,23.91 62.22,89.41 35.8,97.33 8.69,89.41 "/>
<polygon class="st1" points="19.57,36.7 53.38,36.7 54.97,50.2 46.63,50.2 46.63,44.8 26.68,44.8 26.68,53.84 54.97,53.84 
	52.97,79.02 36.19,84.54 18.75,79.31 17.93,66.46 25.86,66.46 26.62,72.8 35.8,76.14 45.46,72.86 46.57,61.94 17.93,62.12 "/>
<polygon class="st0" points="29.61,5.12 29.61,13.25 23.42,13.25 23.42,17.71 29.61,17.71 31.83,17.71 34.04,17.71 34.04,5.12 "/>
<polygon class="st0" points="48.48,13.27 44.45,9.55 48.48,9.55 48.48,5.12 37.71,5.12 37.71,9.55 41.69,13.27 37.71,13.27 
	37.71,17.7 48.48,17.7 "/>
</svg>
