<svg width="130" height="94" viewBox="0 0 130 94" fill="none" xmlns="http://www.w3.org/2000/svg">
<path fill-rule="evenodd" clip-rule="evenodd" d="M65.0467 8.81093C56.0914 8.81093 55.1959 9.7948 50.561 9.7948C46.7005 9.7948 35.1071 0 29.3165 0C23.5258 0 16.761 3.52813 16.761 13.7115V25.4615C16.7731 28.5447 17.8502 37.9948 22.0858 35.4693C17.0817 41.5981 16.5795 48.7484 16.6461 55.6668C15.2967 56.0679 13.9232 56.5253 12.5859 56.9953C8.44718 58.4617 4.05427 60.3292 2.07565 61.6577C1.06464 62.3342 0.354496 63.3989 0.101447 64.6176C-0.151603 65.8363 0.0731689 67.1092 0.726315 68.1563C1.37946 69.2033 2.40748 69.9388 3.58421 70.2009C4.76095 70.463 5.99002 70.2302 7.00103 69.5537C7.94496 68.9208 11.3637 67.3604 15.5206 65.8877L16.9002 65.4177C17.1785 68.1312 17.8744 70.6191 18.9091 72.8751L18.7638 72.9565C16.283 74.3101 13.9837 75.8705 12.5194 76.8607L11.8356 77.3244C10.8246 78.0009 10.1145 79.0655 9.86144 80.2842C9.60839 81.503 9.83316 82.7759 10.4863 83.8229C11.1395 84.87 12.1675 85.6055 13.3442 85.8676C14.5209 86.1296 15.75 85.8969 16.761 85.2204L17.5537 84.6815C19.0361 83.6788 20.9361 82.3941 23.0055 81.2661C23.4895 80.9988 23.9555 80.7564 24.4032 80.5392C34.8712 90.71 53.6711 94 65.0467 94C76.4222 94 95.2222 90.71 105.69 80.5392C106.134 80.7564 106.6 80.9988 107.088 81.2661C109.157 82.3941 111.057 83.6788 112.54 84.6815L113.332 85.2204C114.343 85.8969 115.572 86.1296 116.749 85.8676C117.926 85.6055 118.954 84.87 119.607 83.8229C120.26 82.7759 120.485 81.503 120.232 80.2842C119.979 79.0655 119.269 78.0009 118.258 77.3244L117.574 76.8607C115.552 75.46 113.468 74.1572 111.329 72.9565L111.184 72.8751C112.219 70.6191 112.915 68.1312 113.193 65.4177L114.573 65.8877C118.73 67.3604 122.148 68.9208 123.098 69.5537C124.109 70.1922 125.32 70.3965 126.474 70.123C127.628 69.8495 128.633 69.1198 129.275 68.0897C129.917 67.0595 130.145 65.8104 129.91 64.6088C129.675 63.4072 128.996 62.3482 128.018 61.6577C126.039 60.3292 121.646 58.4617 117.513 56.9953C116.168 56.5195 114.812 56.0745 113.447 55.6605C113.52 48.7421 113.012 41.5981 108.002 35.4693C112.237 37.9948 113.326 28.5447 113.332 25.4552V13.7115C113.332 3.52813 106.574 0 100.777 0C94.9862 0 83.3928 9.7948 79.5384 9.7948C74.8974 9.7948 74.0019 8.81093 65.0467 8.81093ZM60.9624 66.4267C62.1846 65.9943 63.6308 65.8 65.0467 65.8C66.4626 65.8 67.9087 65.9943 69.137 66.4267C69.7421 66.6397 70.4682 66.9781 71.1217 67.5171C71.5694 67.8673 71.9355 68.3172 72.1932 68.8334C72.4508 69.3496 72.5933 69.9192 72.6102 70.5C72.6102 71.9413 71.7691 72.944 71.1217 73.4829C70.4743 74.0219 69.7361 74.3603 69.137 74.5733C67.9087 75.0057 66.4626 75.2 65.0467 75.2C63.6308 75.2 62.1846 75.0057 60.9624 74.5733C60.2438 74.3296 59.5706 73.9609 58.9716 73.4829C58.5239 73.1327 58.1578 72.6828 57.9002 72.1666C57.6426 71.6504 57.5001 71.0808 57.4831 70.5C57.4831 69.0587 58.3242 68.056 58.9716 67.5171C59.6191 66.9781 60.3633 66.6397 60.9624 66.4267ZM78.177 47C79.0059 45.5712 80.6336 43.8667 83.0781 43.8667C85.5227 43.8667 87.1564 45.5712 87.9793 47C88.8385 48.4977 89.25 50.3025 89.25 52.0948C89.25 53.8871 88.8385 55.6856 87.9793 57.1771C87.1564 58.6121 85.5227 60.3167 83.0781 60.3167C80.6336 60.3167 79.0059 58.6121 78.177 57.1833C77.3241 55.6344 76.8854 53.8778 76.9063 52.0948C76.9063 50.3025 77.3178 48.4977 78.177 47.0063M42.114 47.0063C42.943 45.5775 44.5707 43.8729 47.0152 43.8729C49.4597 43.8729 51.0934 45.5775 51.9164 47.0063C52.7756 48.504 53.187 50.3088 53.187 52.1011C53.187 53.8933 52.7756 55.6919 51.9164 57.1833C51.0934 58.6184 49.4597 60.3229 47.0152 60.3229C44.5707 60.3229 42.943 58.6184 42.114 57.1896C41.2611 55.6406 40.8225 53.8841 40.8433 52.1011C40.8433 50.3088 41.2548 48.4977 42.114 47.0063Z" fill="#77C2EE"/>
</svg>
