<?xml version="1.0" encoding="utf-8"?>
<!-- Generator: Adobe Illustrator 25.3.0, SVG Export Plug-In . SVG Version: 6.00 Build 0)  -->
<svg version="1.1" id="Layer_1" xmlns="http://www.w3.org/2000/svg" xmlns:xlink="http://www.w3.org/1999/xlink" x="0px" y="0px"
	 viewBox="0 0 77 78" style="enable-background:new 0 0 77 78;" xml:space="preserve">
<style type="text/css">
	.st0{fill:#77C2EE;}
	.st1{fill:none;stroke:#77C2EE;stroke-width:7;stroke-linecap:round;}
</style>
<path class="st0" d="M24.7,28.7h27.7H24.7z M24.7,40.9h19H24.7z"/>
<path class="st1" d="M24.7,28.7h27.7 M24.7,40.9h19"/>
<path class="st0" d="M45.7,61L45.7,61c-1.2,0.7-2,1.6-2.7,2.5l0,0c-0.6,0.9-1.3,2-2,3.1l-0.5,0.9l0,0l-1.4,2.3
	C39.2,69.9,39.1,70,39,70c-0.1,0.1-0.3,0.1-0.4,0.1s-0.3,0-0.4-0.1c-0.1-0.1-0.2-0.2-0.3-0.3l-0.1-0.1L36,66.6l-0.5-0.9l0,0
	c-0.5-0.8-1-1.6-1.4-2.3l0,0c0,0,0,0,0,0c0,0,0,0,0,0l0,0c-0.7-1-1.6-1.9-2.6-2.5l0,0l0,0l0,0c-1.1-0.6-2.3-1-3.5-1.1l0,0
	c0,0,0,0,0,0c0,0,0,0,0,0v0c-1.1-0.1-2.4-0.1-3.8-0.2c-4.3-0.1-6.5-0.4-8-1l0,0l0,0c-3.4-1.4-6-4.1-7.4-7.4h0
	c-0.4-0.9-1.1-1.6-1.9-1.9c-0.9-0.4-1.9-0.4-2.8,0C3,49.7,2.3,50.4,2,51.3c-0.4,0.9-0.4,1.9,0,2.8v0c1.1,2.5,2.6,4.8,4.5,6.8
	c1.9,1.9,4.2,3.5,6.8,4.5v0c3,1.2,6.3,1.5,10.7,1.6l1,0l0,0c1,0,1.6,0,2.1,0.1c0.3,0,0.5,0.1,0.6,0.1c0.1,0,0.1,0,0.1,0
	c0,0,0.1,0,0.1,0.1c0.1,0.1,0.2,0.2,0.4,0.4l0,0c0.4,0.5,0.8,1.3,1.6,2.6h0l1.9,3.2h0c3.1,5.2,10.6,5.2,13.7,0l0,0l0,0l1.9-3.2
	c0.8-1.3,1.2-2,1.6-2.6l0,0c0.2-0.2,0.3-0.4,0.4-0.4c0.1-0.1,0.1-0.1,0.1-0.1c0,0,0,0,0.1,0c0.1,0,0.3-0.1,0.6-0.1
	c0.7-0.1,1.6-0.1,3.1-0.1l1,0l0,0c3.9-0.1,6.9-0.4,9.7-1.5l0,0c2.5-1.1,4.8-2.6,6.8-4.5c1.9-1.9,3.5-4.2,4.5-6.8l0,0
	c0.9-2.1,1.2-4.3,1.4-6.9v0l0,0c0.2-2.6,0.2-5.7,0.2-9.7v-3.5c0-5.6,0-10-0.3-13.6c-0.3-3.6-1.1-6.7-2.7-9.4l0,0
	C72,8.1,69.6,5.7,66.8,4l0,0C64,2.3,61,1.6,57.4,1.3l0,0c-3.6-0.3-8-0.3-13.6-0.3H33.4c-5.6,0-10,0-13.6,0.3l0,0
	c-3.6,0.3-6.7,1.1-9.4,2.7l0,0l0,0c-2.8,1.7-5.2,4.1-6.9,6.9l0,0l0,0c-1.7,2.7-2.4,5.8-2.7,9.4l0,0c-0.3,3.6-0.3,8-0.3,13.6
	c0,1,0.4,1.9,1.1,2.5C2.1,37.2,3,37.5,4,37.5s1.9-0.4,2.5-1.1c0.7-0.7,1.1-1.6,1.1-2.5c0-5.7,0-9.8,0.3-12.9l0,0
	c0.3-3,0.8-4.9,1.7-6.3l0-0.1c1.1-1.8,2.7-3.4,4.5-4.5l0,0c1.4-0.9,3.3-1.4,6.4-1.7h0c3.1-0.3,7.2-0.3,12.9-0.3h10.4
	c5.7,0,9.8,0,12.9,0.3l0,0l0,0c3.1,0.3,4.9,0.8,6.3,1.7l0,0c1.8,1.1,3.4,2.7,4.5,4.5l0,0c0.9,1.4,1.4,3.3,1.7,6.4l0.9-0.1l-0.1,0
	L69.3,21v0c0.3,3.1,0.3,7.2,0.3,12.9v3.5c0,4.1,0,7-0.2,9.2l0,0c-0.2,2.2-0.4,3.6-0.9,4.7l0,0l0,0c-1.4,3.3-4,6-7.4,7.4l0,0
	c-1.6,0.7-3.7,0.9-8,1c-1.4,0-2.7,0-3.8,0.2l0,0C48.1,60,46.9,60.3,45.7,61 M7.7,51.7L7.7,51.7l0.7-0.3L7.7,51.7z"/>
</svg>
