<?xml version="1.0" encoding="utf-8"?>
<!-- Generator: Adobe Illustrator 25.0.1, SVG Export Plug-In . SVG Version: 6.00 Build 0)  -->
<svg version="1.1" id="Layer_1" xmlns="http://www.w3.org/2000/svg" xmlns:xlink="http://www.w3.org/1999/xlink" x="0px" y="0px"
	 viewBox="0 0 100 100" style="enable-background:new 0 0 100 100;" xml:space="preserve">
<style type="text/css">
	.st0{fill:#FFFFFF;}
</style>
<path class="st0" d="M83.09,35.99c-1.64,1.42-3.25,2.63-4.64,4.06c-2.9,3-4.36,6.66-4.64,10.83c-0.49,7.49,2.69,13.12,8.72,17.3
	c0.65,0.45,1.36,0.85,2.08,1.16c0.69,0.3,0.82,0.65,0.57,1.35c-1.46,4.12-3.35,8.02-6.02,11.49c-1.81,2.36-3.67,4.72-5.78,6.8
	c-3.2,3.16-7.12,3.86-11.38,2.43c-1.26-0.42-2.5-0.89-3.74-1.36c-4.54-1.72-9.06-1.61-13.58,0.11c-1.87,0.71-3.77,1.39-5.72,1.84
	c-3.41,0.79-6.27-0.54-8.75-2.78c-3.7-3.34-6.58-7.34-9.05-11.64c-2.91-5.06-4.9-10.48-5.93-16.21c-1.13-6.25-1.31-12.53,0.98-18.61
	c2.52-6.7,7.04-11.46,13.92-13.77c4.61-1.55,9.13-1.04,13.58,0.73c1.29,0.51,2.62,0.9,3.91,1.4c1.94,0.75,3.81,0.66,5.77-0.04
	c2.88-1.03,5.78-2.19,8.77-2.74c7.98-1.47,14.9,0.65,20.35,6.88C82.76,35.49,82.94,35.79,83.09,35.99z"/>
<path class="st0" d="M67.6,7.79c0.34,2.5,0.02,4.8-0.81,6.99c-2.2,5.77-6,10.05-11.9,12.17c-1.19,0.43-2.54,0.46-3.82,0.63
	c-0.71,0.1-0.98-0.27-0.99-0.99c-0.05-4.36,1.54-8.11,4.16-11.49c2.95-3.81,6.92-5.98,11.52-7.09C66.32,7.88,66.91,7.87,67.6,7.79z"
	/>
</svg>
