<svg width="197" height="160" viewBox="0 0 197 160" fill="none" xmlns="http://www.w3.org/2000/svg">
<path d="M5 80C5 115.353 5 133.034 15.9582 144.012C26.9164 154.991 44.5412 155 79.8 155H117.2C152.459 155 170.093 155 181.042 144.012C191.991 133.025 192 115.353 192 80C192 44.6469 192 26.9656 181.042 15.9875C170.084 5.00937 152.459 5 117.2 5H79.8C44.5412 5 26.9071 5 15.9582 15.9875C9.8433 22.1094 7.14115 30.3125 5.9537 42.5M79.8 117.5H42.4M117.2 89.375H154.6M117.2 117.5H103.175M75.125 89.375H93.825M154.6 117.5H140.575M42.4 89.375H51.75" stroke="white" stroke-width="9.375" stroke-linecap="round"/>
</svg>
