<svg width="88" height="88" viewBox="0 0 88 88" fill="none" xmlns="http://www.w3.org/2000/svg">
<path d="M78.7305 1.55571C78.5756 1.15858 78.3045 0.817445 77.9526 0.57694C77.6006 0.336435 77.1843 0.207764 76.7581 0.207764C76.3318 0.207764 75.9155 0.336435 75.5636 0.57694C75.2116 0.817445 74.9405 1.15858 74.7857 1.55571L72.9009 6.35523C72.7962 6.62704 72.6361 6.87413 72.4309 7.08086C72.2257 7.2876 71.9797 7.44946 71.7087 7.5562L66.9267 9.44971C66.5307 9.60744 66.1912 9.88036 65.9519 10.2332C65.7127 10.586 65.5848 11.0024 65.5848 11.4287C65.5848 11.8549 65.7127 12.2714 65.9519 12.6242C66.1912 12.977 66.5307 13.2499 66.9267 13.4077L71.7087 15.3012C71.9793 15.4074 72.225 15.5686 72.4302 15.7746C72.6354 15.9805 72.7957 16.2268 72.9009 16.4978L74.7857 21.2929C75.4957 23.09 78.0292 23.09 78.7305 21.2929L80.6152 16.4934C80.7209 16.222 80.8819 15.9754 81.0879 15.7695C81.2939 15.5635 81.5404 15.4025 81.8118 15.2968L86.5938 13.4033C86.9898 13.2455 87.3293 12.9726 87.5686 12.6198C87.8078 12.267 87.9357 11.8506 87.9357 11.4243C87.9357 10.998 87.8078 10.5816 87.5686 10.2288C87.3293 9.87598 86.9898 9.60306 86.5938 9.44532L81.8118 7.55182C81.5399 7.44558 81.2932 7.28395 81.0872 7.07719C80.8812 6.87043 80.7204 6.62308 80.6152 6.35084L78.7305 1.55571ZM61.781 27.0786C61.6261 26.6815 61.355 26.3403 61.003 26.0998C60.6511 25.8593 60.2348 25.7307 59.8085 25.7307C59.3823 25.7307 58.966 25.8593 58.614 26.0998C58.2621 26.3403 57.991 26.6815 57.8361 27.0786L57.148 28.8275C57.0427 29.0985 56.8824 29.3447 56.6772 29.5507C56.4721 29.7566 56.2264 29.9178 55.9558 30.0241L54.2113 30.7166C53.8153 30.8743 53.4757 31.1472 53.2365 31.5C52.9973 31.8528 52.8694 32.2693 52.8694 32.6956C52.8694 33.1218 52.9973 33.5383 53.2365 33.8911C53.4757 34.2439 53.8153 34.5168 54.2113 34.6745L55.9558 35.3627C56.5037 35.5819 56.9332 36.0114 57.148 36.5637L57.8361 38.3125C58.5418 40.1096 61.0753 40.1096 61.781 38.3125L62.4691 36.5593C62.5744 36.2883 62.7346 36.042 62.9398 35.8361C63.145 35.6301 63.3907 35.469 63.6613 35.3627L65.4058 34.6745C65.8018 34.5168 66.1414 34.2439 66.3806 33.8911C66.6198 33.5383 66.7477 33.1218 66.7477 32.6956C66.7477 32.2693 66.6198 31.8528 66.3806 31.5C66.1414 31.1472 65.8018 30.8743 65.4058 30.7166L63.6613 30.0241C63.3907 29.9178 63.145 29.7566 62.9398 29.5507C62.7346 29.3447 62.5744 29.0985 62.4691 28.8275L61.781 27.0786Z" fill="#77C2EE"/>
<path d="M44.1039 87.8724C68.3118 87.8724 87.935 68.2492 87.935 44.0412C87.935 42.0119 84.8931 41.6744 83.8456 43.4145C81.6113 47.1153 78.5641 50.2592 74.9348 52.6079C71.3055 54.9567 67.1893 56.4487 62.8979 56.971C58.6066 57.4933 54.2527 57.0322 50.1659 55.6227C46.0792 54.2131 42.3668 51.892 39.31 48.8351C36.2532 45.7783 33.932 42.0659 32.5225 37.9792C31.1129 33.8924 30.6518 29.5385 31.1741 25.2472C31.6964 20.9558 33.1885 16.8396 35.5372 13.2103C37.886 9.58105 41.0298 6.53385 44.7307 4.29953C46.4707 3.24758 46.1333 0.210083 44.1039 0.210083C19.8959 0.210083 0.272705 19.8333 0.272705 44.0412C0.272705 68.2492 19.8959 87.8724 44.1039 87.8724Z" fill="#77C2EE"/>
</svg>
